# 3ds Max Wavefront OBJ Exporter v0.97b - (c)2007 guruware
# File Created: 05.12.2019 22:51:43

mtllib Spikes.mtl

#
# object Box015
#

v  -0.0758 0.0000 0.2187
v  -0.0758 0.0000 0.0626
v  0.0803 0.0000 0.0626
v  0.0803 0.0000 0.2187
v  0.0023 0.3903 0.1407
v  -0.2887 0.0000 0.1190
v  -0.2887 0.0000 0.0190
v  -0.1887 0.0000 0.0190
v  -0.1887 0.0000 0.1190
v  -0.2387 0.2500 0.0690
v  -0.4577 0.0000 0.0859
v  -0.4577 0.0000 -0.0702
v  -0.3016 0.0000 -0.0702
v  -0.3016 0.0000 0.0859
v  -0.3796 0.3903 0.0078
v  -0.5096 0.0000 0.2088
v  -0.5096 0.0000 0.1502
v  -0.4510 0.0000 0.1502
v  -0.4510 0.0000 0.2088
v  -0.4803 0.1376 0.1795
v  -0.4985 0.0001 -0.0810
v  -0.4985 0.0001 -0.1810
v  -0.3985 0.0001 -0.1810
v  -0.3985 0.0001 -0.0810
v  -0.4485 0.2501 -0.1310
v  -0.5097 0.0000 -0.2665
v  -0.5097 0.0000 -0.3251
v  -0.4511 0.0000 -0.3251
v  -0.4511 0.0000 -0.2665
v  -0.4804 0.1376 -0.2958
v  -0.4475 0.0000 -0.4055
v  -0.4475 0.0000 -0.5055
v  -0.3475 0.0000 -0.5055
v  -0.3475 0.0000 -0.4055
v  -0.3975 0.2500 -0.4555
v  -0.4807 0.0000 -0.5820
v  -0.4807 0.0000 -0.6406
v  -0.4221 0.0000 -0.6406
v  -0.4221 0.0000 -0.5820
v  -0.4514 0.1376 -0.6113
v  -0.3415 0.0000 -0.3023
v  -0.3415 0.0000 -0.4584
v  -0.1853 0.0000 -0.4584
v  -0.1853 0.0000 -0.3023
v  -0.2634 0.3903 -0.3803
v  -0.2046 0.0000 -0.1545
v  -0.2046 0.0000 -0.2131
v  -0.1459 0.0000 -0.2131
v  -0.1459 0.0000 -0.1545
v  -0.1752 0.1376 -0.1838
v  -0.0834 0.0000 -0.0624
v  -0.0834 0.0000 -0.1624
v  0.0166 0.0000 -0.1624
v  0.0166 0.0000 -0.0624
v  -0.0334 0.2500 -0.1124
v  0.0611 0.0000 0.0199
v  0.0611 0.0000 -0.0387
v  0.1197 0.0000 -0.0387
v  0.1197 0.0000 0.0199
v  0.0904 0.1376 -0.0094
v  0.1536 0.0000 0.0967
v  0.1536 0.0000 -0.0033
v  0.2536 0.0000 -0.0033
v  0.2536 0.0000 0.0967
v  0.2036 0.2500 0.0467
v  0.2957 -0.0001 0.1859
v  0.2957 -0.0001 0.1272
v  0.3543 -0.0001 0.1272
v  0.3543 -0.0001 0.1859
v  0.3250 0.1375 0.1566
v  0.2359 -0.0045 -0.1059
v  0.2359 -0.0045 -0.1645
v  0.2945 -0.0045 -0.1645
v  0.2945 -0.0045 -0.1059
v  0.2652 0.1331 -0.1352
v  0.2480 0.0000 -0.1819
v  0.2480 0.0000 -0.3380
v  0.4041 0.0000 -0.3380
v  0.4041 0.0000 -0.1819
v  0.3261 0.3903 -0.2599
v  0.0785 0.0000 -0.2492
v  0.0785 0.0000 -0.3492
v  0.1785 0.0000 -0.3492
v  0.1785 0.0000 -0.2492
v  0.1285 0.2500 -0.2992
v  -0.0676 0.0000 -0.3330
v  -0.0676 0.0000 -0.3916
v  -0.0090 0.0000 -0.3916
v  -0.0090 0.0000 -0.3330
v  -0.0383 0.1376 -0.3623
v  -0.1953 0.0000 -0.5135
v  -0.1953 0.0000 -0.6135
v  -0.0953 0.0000 -0.6135
v  -0.0953 0.0000 -0.5135
v  -0.1453 0.2500 -0.5635
v  -0.0488 0.0000 -0.5409
v  -0.0488 0.0000 -0.6971
v  0.1073 0.0000 -0.6971
v  0.1073 0.0000 -0.5409
v  0.0293 0.3903 -0.6190
v  0.2260 -0.0000 -0.5647
v  0.2260 -0.0000 -0.6233
v  0.2847 -0.0000 -0.6233
v  0.2847 -0.0000 -0.5647
v  0.2554 0.1376 -0.5940
v  0.2840 -0.0000 -0.4153
v  0.2840 -0.0000 -0.5153
v  0.3840 -0.0000 -0.5153
v  0.3840 -0.0000 -0.4153
v  0.3340 0.2500 -0.4653
# 110 vertices

vn -0.6223 -0.4749 0.6223
vn -0.6223 -0.4749 -0.6223
vn 0.6223 -0.4749 -0.6223
vn 0.6223 -0.4749 0.6223
vn 0.0000 1.0000 -0.0000
vn -0.6247 -0.4686 0.6247
vn -0.6247 -0.4686 -0.6247
vn 0.6247 -0.4686 -0.6247
vn 0.6247 -0.4686 0.6247
vn -0.0000 1.0000 -0.0000
vn 0.0000 1.0000 0.0000
# 11 vertex normals

vt 1.0000 0.0000 0.0000
vt 1.0000 1.0000 0.0000
vt 0.0000 1.0000 0.0000
vt 0.0000 0.0000 0.0000
vt 0.5000 1.0000 0.0000
# 5 texture coords

o Box015
g Box015
usemtl wire_135006006
s 2
f 1/1/1 2/2/2 3/3/3 4/4/4 
s 8
f 1/4/1 4/1/4 5/5/5 
s 16
f 4/4/4 3/1/3 5/5/5 
s 32
f 3/4/3 2/1/2 5/5/5 
s 64
f 2/4/2 1/1/1 5/5/5 
s 2
f 6/1/1 7/2/2 8/3/3 9/4/4 
s 8
f 6/4/1 9/1/4 10/5/5 
s 16
f 9/4/4 8/1/3 10/5/5 
s 32
f 8/4/3 7/1/2 10/5/5 
s 64
f 7/4/2 6/1/1 10/5/5 
s 2
f 11/1/1 12/2/2 13/3/3 14/4/4 
s 8
f 11/4/1 14/1/4 15/5/5 
s 16
f 14/4/4 13/1/3 15/5/5 
s 32
f 13/4/3 12/1/2 15/5/5 
s 64
f 12/4/2 11/1/1 15/5/5 
s 2
f 16/1/6 17/2/7 18/3/8 19/4/9 
s 8
f 16/4/6 19/1/9 20/5/5 
s 16
f 19/4/9 18/1/8 20/5/5 
s 32
f 18/4/8 17/1/7 20/5/5 
s 64
f 17/4/7 16/1/6 20/5/5 
s 2
f 21/1/1 22/2/2 23/3/3 24/4/4 
s 8
f 21/4/1 24/1/4 25/5/5 
s 16
f 24/4/4 23/1/3 25/5/5 
s 32
f 23/4/3 22/1/2 25/5/5 
s 64
f 22/4/2 21/1/1 25/5/5 
s 2
f 26/1/6 27/2/7 28/3/8 29/4/9 
s 8
f 26/4/6 29/1/9 30/5/5 
s 16
f 29/4/9 28/1/8 30/5/5 
s 32
f 28/4/8 27/1/7 30/5/5 
s 64
f 27/4/7 26/1/6 30/5/5 
s 2
f 31/1/1 32/2/2 33/3/3 34/4/4 
s 8
f 31/4/1 34/1/4 35/5/5 
s 16
f 34/4/4 33/1/3 35/5/5 
s 32
f 33/4/3 32/1/2 35/5/5 
s 64
f 32/4/2 31/1/1 35/5/5 
s 2
f 36/1/6 37/2/7 38/3/8 39/4/9 
s 8
f 36/4/6 39/1/9 40/5/5 
s 16
f 39/4/9 38/1/8 40/5/5 
s 32
f 38/4/8 37/1/7 40/5/5 
s 64
f 37/4/7 36/1/6 40/5/5 
s 2
f 41/1/1 42/2/2 43/3/3 44/4/4 
s 8
f 41/4/1 44/1/4 45/5/5 
s 16
f 44/4/4 43/1/3 45/5/5 
s 32
f 43/4/3 42/1/2 45/5/5 
s 64
f 42/4/2 41/1/1 45/5/5 
s 2
f 46/1/6 47/2/7 48/3/8 49/4/9 
s 8
f 46/4/6 49/1/9 50/5/10 
s 16
f 49/4/9 48/1/8 50/5/10 
s 32
f 48/4/8 47/1/7 50/5/10 
s 64
f 47/4/7 46/1/6 50/5/10 
s 2
f 51/1/1 52/2/2 53/3/3 54/4/4 
s 8
f 51/4/1 54/1/4 55/5/5 
s 16
f 54/4/4 53/1/3 55/5/5 
s 32
f 53/4/3 52/1/2 55/5/5 
s 64
f 52/4/2 51/1/1 55/5/5 
s 2
f 56/1/6 57/2/7 58/3/8 59/4/9 
s 8
f 56/4/6 59/1/9 60/5/5 
s 16
f 59/4/9 58/1/8 60/5/5 
s 32
f 58/4/8 57/1/7 60/5/5 
s 64
f 57/4/7 56/1/6 60/5/5 
s 2
f 61/1/1 62/2/2 63/3/3 64/4/4 
s 8
f 61/4/1 64/1/4 65/5/5 
s 16
f 64/4/4 63/1/3 65/5/5 
s 32
f 63/4/3 62/1/2 65/5/5 
s 64
f 62/4/2 61/1/1 65/5/5 
s 2
f 66/1/6 67/2/7 68/3/8 69/4/9 
s 8
f 66/4/6 69/1/9 70/5/5 
s 16
f 69/4/9 68/1/8 70/5/5 
s 32
f 68/4/8 67/1/7 70/5/5 
s 64
f 67/4/7 66/1/6 70/5/5 
s 2
f 71/1/6 72/2/7 73/3/8 74/4/9 
s 8
f 71/4/6 74/1/9 75/5/5 
s 16
f 74/4/9 73/1/8 75/5/5 
s 32
f 73/4/8 72/1/7 75/5/5 
s 64
f 72/4/7 71/1/6 75/5/5 
s 2
f 76/1/1 77/2/2 78/3/3 79/4/4 
s 8
f 76/4/1 79/1/4 80/5/5 
s 16
f 79/4/4 78/1/3 80/5/5 
s 32
f 78/4/3 77/1/2 80/5/5 
s 64
f 77/4/2 76/1/1 80/5/5 
s 2
f 81/1/1 82/2/2 83/3/3 84/4/4 
s 8
f 81/4/1 84/1/4 85/5/5 
s 16
f 84/4/4 83/1/3 85/5/5 
s 32
f 83/4/3 82/1/2 85/5/5 
s 64
f 82/4/2 81/1/1 85/5/5 
s 2
f 86/1/6 87/2/7 88/3/8 89/4/9 
s 8
f 86/4/6 89/1/9 90/5/5 
s 16
f 89/4/9 88/1/8 90/5/5 
s 32
f 88/4/8 87/1/7 90/5/5 
s 64
f 87/4/7 86/1/6 90/5/5 
s 2
f 91/1/1 92/2/2 93/3/3 94/4/4 
s 8
f 91/4/1 94/1/4 95/5/5 
s 16
f 94/4/4 93/1/3 95/5/5 
s 32
f 93/4/3 92/1/2 95/5/5 
s 64
f 92/4/2 91/1/1 95/5/5 
s 2
f 96/1/1 97/2/2 98/3/3 99/4/4 
s 8
f 96/4/1 99/1/4 100/5/11 
s 16
f 99/4/4 98/1/3 100/5/11 
s 32
f 98/4/3 97/1/2 100/5/11 
s 64
f 97/4/2 96/1/1 100/5/11 
s 2
f 101/1/6 102/2/7 103/3/8 104/4/9 
s 8
f 101/4/6 104/1/9 105/5/5 
s 16
f 104/4/9 103/1/8 105/5/5 
s 32
f 103/4/8 102/1/7 105/5/5 
s 64
f 102/4/7 101/1/6 105/5/5 
s 2
f 106/1/1 107/2/2 108/3/3 109/4/4 
s 8
f 106/4/1 109/1/4 110/5/5 
s 16
f 109/4/4 108/1/3 110/5/5 
s 32
f 108/4/3 107/1/2 110/5/5 
s 64
f 107/4/2 106/1/1 110/5/5 
# 22 polygons - 88 triangles

